<svg width="7" height="14" viewBox="0 0 7 14" fill="none" xmlns="http://www.w3.org/2000/svg">
<path fill-rule="evenodd" clip-rule="evenodd" d="M2.58847 1.46702C2.59255 1.46592 2.86134 1.3948 3.16451 1.05649C3.42234 0.768659 3.56995 0.503136 3.93242 0.516736C4.29489 0.530315 4.78907 0.929654 4.46055 1.4751L2.58826 1.46704L2.58847 1.46702Z" fill="#2D5E00"/>
<path fill-rule="evenodd" clip-rule="evenodd" d="M4.56814 12.3554C4.56406 12.3565 4.29527 12.4276 3.99211 12.7659C3.73427 13.0537 3.58667 13.3193 3.2242 13.3057C2.86173 13.2921 2.36755 12.8927 2.69607 12.3473L4.56836 12.3553L4.56814 12.3554Z" fill="#2D5E00"/>
<path d="M6.73042 5.9919L6.74438 10.2154C6.74438 11.0492 6.0274 11.7402 5.19353 11.7402H1.42811L1.42231 11.7402C0.937585 11.7371 0.507006 11.3421 0.507006 10.8569C0.507006 10.3698 0.941023 9.97729 1.42811 9.97729L3.24346 9.97205C4.22322 9.96371 4.73802 9.3479 5.00789 8.73415C5.27754 8.12043 5.29193 7.71643 5.30246 7.50876C5.31235 7.31275 5.30246 6.10958 5.30139 5.9752C5.30139 5.97112 5.30117 5.96706 5.30117 5.963C5.30117 5.5608 5.62067 5.21636 6.02289 5.21636C6.4251 5.21636 6.73042 5.5897 6.73042 5.9919Z" fill="#00B705"/>
<path d="M0.521045 7.79057L0.50708 3.56712C0.50708 2.73329 1.22407 2.04224 2.05794 2.04224H5.82336L5.82916 2.04226C6.31388 2.04533 6.74446 2.44039 6.74446 2.92557C6.74446 3.41266 6.31044 3.80518 5.82336 3.80518L4.00801 3.81042C3.02824 3.81876 2.51344 4.43457 2.24358 5.04832C1.97393 5.66204 1.95953 6.06604 1.949 6.27371C1.93912 6.46972 1.949 7.67289 1.95008 7.80727C1.95008 7.81135 1.95029 7.81541 1.95029 7.81947C1.95029 8.22167 1.6308 8.56611 1.22858 8.56611C0.826362 8.56611 0.521045 8.19277 0.521045 7.79057Z" fill="#00B705"/>
<path fill-rule="evenodd" clip-rule="evenodd" d="M4.50161 5.20883C4.87585 5.39024 4.942 6.33866 4.48229 7.18592C4.02267 8.0333 3.09096 8.64955 2.74949 8.44917C2.45898 8.27875 2.43561 7.16431 2.89532 6.31705C3.35494 5.46974 4.20732 5.0662 4.50161 5.20883ZM3.64914 6.1676C4.00255 6.1676 4.28946 6.45454 4.28946 6.808C4.28946 7.16141 4.00255 7.44832 3.64914 7.44832C3.29573 7.44832 3.00882 7.16141 3.00882 6.808C3.00882 6.45454 3.29573 6.1676 3.64914 6.1676Z" fill="#2D5E00"/>
<path d="M5.55341 10.799C5.72045 10.799 5.85585 10.6636 5.85585 10.4965C5.85585 10.3295 5.72045 10.1941 5.55341 10.1941C5.38638 10.1941 5.25098 10.3295 5.25098 10.4965C5.25098 10.6636 5.38638 10.799 5.55341 10.799Z" fill="#2D5E00"/>
<path d="M1.60127 3.44398C1.7683 3.44398 1.9037 3.30858 1.9037 3.14155C1.9037 2.97452 1.7683 2.83911 1.60127 2.83911C1.43423 2.83911 1.29883 2.97452 1.29883 3.14155C1.29883 3.30858 1.43423 3.44398 1.60127 3.44398Z" fill="#2D5E00"/>
<path fill-rule="evenodd" clip-rule="evenodd" d="M3.597 6.1687C3.6442 6.4847 3.60936 6.3059 3.66712 6.70823C3.68731 6.84897 3.6903 6.90759 3.72095 7.19158H3.08557L3.597 6.1687Z" fill="#2D5E00"/>
<path fill-rule="evenodd" clip-rule="evenodd" d="M3.973 6.92054L4.10787 7.19141H3.72075C3.69009 6.90739 3.68711 6.8488 3.66691 6.70804C3.60916 6.30572 3.64401 6.4845 3.5968 6.16851L3.59689 6.16833L3.973 6.92054Z" fill="#00B705"/>
</svg>
